<svg width="34" height="100%" viewBox="0 0 24 14" fill="none" xmlns="http://www.w3.org/2000/svg">
<path d="M23.1755 0.997951C23.3389 0.455451 23.1755 0.0576172 22.4032 0.0576172H19.8447C19.1937 0.0576172 18.8962 0.401784 18.7329 0.779784C18.7329 0.779784 17.432 3.95195 15.5887 6.00878C14.9937 6.60728 14.7219 6.79628 14.3975 6.79628C14.2354 6.79628 13.9997 6.60728 13.9997 6.06478V0.997951C13.9997 0.346951 13.8119 0.0576172 13.2694 0.0576172H9.24904C8.84304 0.0576172 8.59804 0.358617 8.59804 0.645617C8.59804 1.26162 9.51971 1.40395 9.61421 3.13995V6.90595C9.61421 7.73078 9.46604 7.88128 9.13937 7.88128C8.27254 7.88128 6.16321 4.69745 4.91137 1.05278C4.66754 0.344617 4.42137 0.0587843 3.76804 0.0587843H1.21071C0.479207 0.0587843 0.333374 0.402951 0.333374 0.780951C0.333374 1.45995 1.20021 4.81995 4.37121 9.26378C6.48521 12.2983 9.46137 13.9433 12.1727 13.9433C13.7979 13.9433 13.9985 13.5781 13.9985 12.9481V10.6545C13.9985 9.92412 14.1537 9.77712 14.6682 9.77712C15.0462 9.77712 15.6972 9.96845 17.215 11.4303C18.9487 13.164 19.2357 13.9421 20.2099 13.9421H22.7672C23.4975 13.9421 23.8627 13.577 23.6527 12.856C23.4229 12.1385 22.5945 11.0943 21.4955 9.85878C20.8982 9.15412 20.0057 8.39579 19.7339 8.01662C19.3547 7.52778 19.4644 7.31195 19.7339 6.87795C19.735 6.87912 22.8512 2.49012 23.1755 0.997951Z" fill="#2c4393"/>
</svg>
